<svg xmlns="http://www.w3.org/2000/svg" width="124" height="124" enable-background="new 0 0 124 124" viewBox="0 0 124 124" id="instagram"><linearGradient id="a" x1="29.222" x2="133.69" y1="90.813" y2="1.859" gradientUnits="userSpaceOnUse"><stop offset=".001" stop-color="#fbe18a"></stop><stop offset=".209" stop-color="#fcbb45"></stop><stop offset=".377" stop-color="#f75274"></stop><stop offset=".524" stop-color="#d53692"></stop><stop offset=".739" stop-color="#8f39ce"></stop><stop offset="1" stop-color="#5b4fe9"></stop></linearGradient><path fill="url(#a)" d="M63.244,103.949c-23.218,0-42.107-18.89-42.107-42.107s18.89-42.107,42.107-42.107
	s42.107,18.89,42.107,42.107S86.462,103.949,63.244,103.949z M63.244,23.734c-21.013,0-38.107,17.095-38.107,38.107
	s17.095,38.107,38.107,38.107s38.107-17.095,38.107-38.107S84.257,23.734,63.244,23.734z M77.442,44.758
	c-1.721,0-3.116,1.395-3.116,3.116s1.396,3.116,3.116,3.116s3.116-1.395,3.116-3.116S79.163,44.758,77.442,44.758z M63.59,48.753
	c-7.217,0-13.089,5.872-13.089,13.088s5.872,13.089,13.089,13.089s13.089-5.872,13.089-13.089S70.807,48.753,63.59,48.753z
	 M63.59,70.227c-4.623,0-8.384-3.762-8.384-8.385s3.761-8.384,8.384-8.384s8.385,3.761,8.385,8.384S68.213,70.227,63.59,70.227z
	 M90,50.964C90,42.147,82.853,35,74.035,35h-21.07C44.147,35,37,42.147,37,50.964v21.072C37,80.853,44.147,88,52.965,88h21.07
	C82.853,88,90,80.853,90,72.036V50.964z M85,72.036C85,78.092,80.091,83,74.035,83h-21.07C46.909,83,42,78.092,42,72.036V50.964
	C42,44.909,46.909,40,52.965,40h21.07C80.091,40,85,44.909,85,50.964V72.036z"></path></svg>